<?xml version="1.0" encoding="UTF-8" standalone="no"?>
<!-- Created with Inkscape (http://www.inkscape.org/) -->

<svg
   width="14.999997"
   height="15.000007"
   viewBox="0 0 3.9687492 3.9687519"
   version="1.1"
   id="svg5"
   inkscape:version="1.1.1 (c3084ef, 2021-09-22)"
   sodipodi:docname="poly_icon.svg"
   xmlns:inkscape="http://www.inkscape.org/namespaces/inkscape"
   xmlns:sodipodi="http://sodipodi.sourceforge.net/DTD/sodipodi-0.dtd"
   xmlns="http://www.w3.org/2000/svg"
   xmlns:svg="http://www.w3.org/2000/svg">
  <sodipodi:namedview
     id="namedview7"
     pagecolor="#ffffff"
     bordercolor="#111111"
     borderopacity="1"
     inkscape:pageshadow="0"
     inkscape:pageopacity="0"
     inkscape:pagecheckerboard="1"
     inkscape:document-units="px"
     showgrid="false"
     inkscape:zoom="9.591727"
     inkscape:cx="59.895366"
     inkscape:cy="26.637539"
     inkscape:window-width="1440"
     inkscape:window-height="847"
     inkscape:window-x="0"
     inkscape:window-y="25"
     inkscape:window-maximized="0"
     inkscape:current-layer="layer1"
     units="px"
     fit-margin-top="0"
     fit-margin-left="0"
     fit-margin-right="0"
     fit-margin-bottom="0" />
  <defs
     id="defs2" />
  <g
     inkscape:label="Layer 1"
     inkscape:groupmode="layer"
     id="layer1"
     transform="translate(-0.04463171,-0.04388963)">
    <path
       sodipodi:type="star"
       style="fill:#ffa700;fill-opacity:1;fill-rule:evenodd"
       id="path33"
       inkscape:flatsided="false"
       sodipodi:sides="5"
       sodipodi:cx="95.189667"
       sodipodi:cy="222.70792"
       sodipodi:r1="193.44685"
       sodipodi:r2="132.29352"
       sodipodi:arg1="-0.22471116"
       sodipodi:arg2="0.13548742"
       inkscape:rounded="0.12"
       inkscape:randomized="0.3"
       d="m 323.00124,142.39346 c 7.03064,4.97817 -36.72118,64.43318 -44.52716,71.077 -14.11409,12.01278 -47.36382,173.60457 -59.70746,188.05395 -6.82681,7.99141 -52.83044,-40.51866 -61.86161,-44.36679 -16.32938,-6.95785 -175.976255,39.26323 -186.455445,25.90526 -5.79565,-7.3878 45.42205,-42.69365 40.01863,-50.49988 C 0.69820232,318.44845 -116.50949,187.43013 -121.27342,169.48503 -123.90818,159.56027 -16.953793,75.514741 -6.6749331,73.986286 11.910406,71.222666 84.502305,11.366624 102.17365,16.657075 c 9.77336,2.925952 -0.81425,107.569235 9.09224,111.900225 17.91206,7.83094 199.02316,4.83506 211.73535,13.83616 z"
       transform="matrix(0.00891685,0,0,0.01027946,1.1264355,-0.12393451)"
       inkscape:transform-center-x="-0.060087351"
       inkscape:transform-center-y="-0.12551184" />
  </g>
</svg>
